<svg width="521" height="112" viewBox="0 0 521 112" fill="none" xmlns="http://www.w3.org/2000/svg">
<path d="M124.858 61.2196H147.259C147.358 61.2334 147.443 61.2333 147.542 61.2333C147.641 61.2333 147.726 61.2334 147.825 61.2196H368.171V61.2333L368.17 61.2372H398.463L398.462 61.2333V61.2196H428.711C428.81 61.2334 428.896 61.2333 428.995 61.2333C432.041 61.2331 434.505 58.7674 434.505 55.7215C434.505 52.7235 432.114 50.2863 429.135 50.2098H135.91V24.6942H429.235V24.704C443.849 24.8174 456.087 35.0842 459.214 48.7792C462.359 35.0077 474.714 24.6942 489.449 24.6942C506.549 24.6942 520.463 38.6213 520.463 55.7215C520.463 72.8227 506.549 86.7352 489.449 86.7352C474.714 86.7352 462.359 76.4353 459.214 62.6639C456.069 76.4352 443.715 86.7351 428.995 86.7352H428.994V86.7401H147.549V86.7352H147.542C138.587 86.7351 130.512 82.9238 124.858 76.8319V87.7831C124.858 100.761 114.303 111.316 101.325 111.316C88.5462 111.316 78.1328 101.088 77.8066 88.3924H99.3428V64.3495L99.3564 64.3358V24.6942H124.858V61.2196ZM384.96 92.9999C389.908 92.9999 393.92 97.0114 393.92 101.96C393.92 106.908 389.908 110.92 384.96 110.92C380.012 110.92 376 106.908 376 101.96C376 97.0114 380.012 92.9999 384.96 92.9999ZM76.6738 33.5624C81.9162 38.7053 85.3583 45.676 85.9111 53.454C85.9673 54.2049 85.9961 54.9559 85.9961 55.7206C85.9961 71.4194 74.2652 84.425 59.1191 86.451C57.7741 86.6353 56.3855 86.7342 54.9824 86.7342C45.0937 86.7342 36.2676 82.0727 30.6143 74.8475C31.0388 74.5786 31.4495 74.2806 31.875 73.9969C38.4488 69.4353 45.1072 64.108 50.7744 59.2479C51.7667 60.4668 53.2826 61.2322 54.9824 61.2323C56.6399 61.2323 58.1139 60.5093 59.1191 59.3475C59.9833 58.37 60.4941 57.109 60.4941 55.7206C60.4941 54.9135 60.325 54.1477 60.0127 53.454C59.7575 52.8874 59.4034 52.3633 58.9502 51.91C64.3336 46.8657 70.8086 40.3066 76.6738 33.5624ZM77.1982 2.46471C84.9901 -1.27597 87.6967 -0.0291272 89.0566 1.45886C90.8274 3.37161 91.9894 7.49456 81.7598 21.0106C79.2667 24.297 76.334 27.8246 73.0615 31.4803C69.9409 34.9695 66.4997 38.5845 62.8281 42.245L62.3271 42.746L61.2676 43.7909C60.6991 44.3501 60.1269 44.9109 59.54 45.4794L59.4893 45.5282C58.743 46.2496 57.9886 46.9745 57.2119 47.7089C56.3178 48.5563 55.4141 49.4042 54.501 50.2528C54.2034 50.5218 53.8913 50.805 53.5938 51.0887C53.2396 51.4152 51.2562 53.2422 48.2393 55.8768C44.541 59.0932 39.2709 63.5425 33.5605 67.9344C31.6056 69.4361 29.6079 70.9235 27.5967 72.369C18.9535 78.5457 10.1837 83.661 4.85645 83.661C3.31237 83.661 2.05089 83.236 1.17285 82.2733C-0.597986 80.3606 -1.75926 76.2368 8.4834 62.7206C12.8331 56.9825 18.529 50.5072 25.0889 43.8202C25.8691 43.0242 26.6665 42.2242 27.4707 41.4227C30.7498 35.1401 36.1117 30.1162 42.6357 27.2821C42.9729 26.9882 43.3122 26.6845 43.6484 26.3934C48.0688 22.5544 52.447 18.9845 56.626 15.7821C56.9236 15.5416 57.2219 15.328 57.5195 15.1161C57.6329 15.3427 57.7459 15.5702 57.873 15.7821C58.4544 16.8166 59.1905 17.737 60.0547 18.5311L59.375 19.0409C57.0943 20.7693 54.6993 22.6675 52.1914 24.7362L52.0518 24.8524C52.5124 24.8091 52.9714 24.7583 53.4385 24.7362C53.9488 24.7076 54.4721 24.6942 54.9824 24.6942C60.4073 24.6942 65.498 26.1126 69.9287 28.579C80.8742 16.2901 86.0244 7.62866 86.0244 4.87292C86.0244 4.6316 85.982 4.43373 85.9111 4.29186C85.7408 4.19337 85.4869 4.13567 85.1748 4.13561C84.0563 4.13561 82.0299 4.78842 79.2383 6.14831C78.8559 4.95793 78.275 3.86707 77.5518 2.88952C77.4385 2.74766 77.3254 2.60565 77.1982 2.46471ZM22.9209 52.2645C9.14946 67.184 3.3121 77.4133 4.33203 79.4393C5.90492 80.4029 13.655 77.0592 25.5283 68.6151C25.8378 68.395 26.1645 68.1522 26.4795 67.9257C24.8708 64.1804 23.9688 60.0601 23.9688 55.7215C23.9688 54.5597 24.0398 53.3978 24.167 52.2645C24.226 51.7292 24.3137 51.2027 24.3994 50.6757C23.8992 51.21 23.4018 51.7422 22.9209 52.2645ZM489.449 50.1962C486.403 50.1962 483.924 52.6756 483.924 55.7215C483.924 58.7675 486.403 61.2333 489.449 61.2333C492.481 61.2333 494.961 58.7675 494.961 55.7215C494.961 52.6756 492.481 50.1962 489.449 50.1962ZM41.96 0.999871C46.9084 0.999871 50.9199 5.01136 50.9199 9.95983C50.9199 14.9083 46.9084 18.9198 41.96 18.9198C37.0115 18.9198 33.0001 14.9082 33 9.95983C33 5.01137 37.0115 0.999892 41.96 0.999871ZM67.96 0.999871C72.9084 0.999871 76.9199 5.01136 76.9199 9.95983C76.9199 14.9083 72.9084 18.9198 67.96 18.9198C63.0115 18.9198 59.0001 14.9082 59 9.95983C59 5.01137 63.0115 0.999892 67.96 0.999871ZM11.958 6.90319L17.9082 0.953972H23.9297L14.9756 9.92077L23.9297 18.8758H17.9082L11.958 12.9257L6.00684 18.8758H0L8.9541 9.92077L0 0.953972H6.00684L11.958 6.90319ZM114.233 0.953972H114.237V9.78893L114.235 9.81042C114.247 11.3868 115.53 12.6512 117.096 12.6512H117.194C118.214 12.6087 119.107 12.0414 119.589 11.2049C119.83 10.7941 119.971 10.3121 119.971 9.78893V0.948113H124.221V9.78893C124.221 10.2697 124.179 10.7518 124.08 11.2049C123.429 14.4213 120.595 16.8587 117.194 16.9012H117.096C115.156 16.9012 113.387 16.1238 112.112 14.8505C110.826 16.119 109.064 16.907 107.119 16.9071C103.197 16.9071 100.006 13.713 100.006 9.78893V0.953972H104.256V9.78893C104.256 11.37 105.541 12.6561 107.119 12.6561C108.694 12.656 109.973 11.3813 109.985 9.81042C109.984 9.80245 109.983 9.79507 109.982 9.78893V0.948113H114.233V0.953972ZM412.622 12.037H357.722V7.78698H412.622V12.037ZM516.894 12.037H461.993V7.78698H516.894V12.037Z" fill="#231F20"/>
</svg>
