<svg width="100" height="100" viewBox="0 0 100 100" fill="none" xmlns="http://www.w3.org/2000/svg">
<path d="M60 0H40V20H60V0Z" fill="white"/>
<path d="M20 0H0V20H20V0Z" fill="white"/>
<path d="M40 20H20V40H40V20Z" fill="white"/>
<path d="M20 40H0V60H20V40Z" fill="white"/>
<path d="M60 40H40V60H60V40Z" fill="white"/>
<path d="M40 60H20V80H40V60Z" fill="white"/>
<path d="M20 80H0V100H20V80Z" fill="white"/>
<path d="M60 80H40V100H60V80Z" fill="white"/>
<path d="M100 0H80V20H100V0Z" fill="white"/>
<path d="M80 20H60V40H80V20Z" fill="white"/>
<path d="M100 40H80V60H100V40Z" fill="white"/>
<path d="M80 60H60V80H80V60Z" fill="white"/>
<path d="M100 80H80V100H100V80Z" fill="white"/>
</svg>
